<svg width="39" height="37" viewBox="0 0 39 37" fill="none" xmlns="http://www.w3.org/2000/svg">
<path d="M8.58146 34.888C5.5409 29.9262 3.78809 24.0899 3.78809 17.8442C3.78809 11.9728 5.3783 6.31608 8.08989 1.55469" stroke="#272E35" stroke-width="3" stroke-miterlimit="10" stroke-linecap="round" stroke-linejoin="round"/>
<path d="M1.5 3.62213L8.08992 1.55469L10.1533 8.25299" stroke="#272E35" stroke-width="3" stroke-miterlimit="10" stroke-linecap="round" stroke-linejoin="round"/>
<path d="M23.4465 25.4291L27.7381 27.9947" stroke="#272E35" stroke-width="3" stroke-miterlimit="10" stroke-linecap="round" stroke-linejoin="round"/>
<path d="M37.3333 14.9827L34.1786 12.1762C32.8121 10.9606 30.7212 11.0731 29.493 12.4285L23.1511 19.4271L15.2832 14.7236C14.0981 14.0151 12.5631 14.4015 11.8546 15.5866V15.5866C11.1461 16.7717 11.5325 18.3067 12.7176 19.0151L23.4466 25.4291L21.7362 28.2902C21.2639 29.0802 21.5214 30.1036 22.3115 30.5759L28.0336 33.9967C30.5371 35.4933 34.5079 33.0127 37.3243 34.6963" stroke="#272E35" stroke-width="3" stroke-miterlimit="10" stroke-linecap="round" stroke-linejoin="round"/>
</svg>
